<svg viewBox="0 0 512 512" fill="none" xmlns="http://www.w3.org/2000/svg">
<path d="M497.058 15.5582L334.17 1.30733C325.917 0.585313 318.642 6.69016 317.92 14.9429L304.953 163.158L182.989 152.487C174.737 151.765 167.461 157.87 166.739 166.123L153.772 314.338L31.8086 303.668C23.5559 302.946 16.2804 309.05 15.5584 317.303L1.30749 480.192C0.585473 488.444 6.69032 495.72 14.9431 496.442L177.831 510.693C186.084 511.415 193.36 505.31 194.082 497.057L207.049 348.842L329.012 359.513C337.265 360.235 344.54 354.13 345.262 345.877L358.23 197.662L480.193 208.332C488.445 209.054 495.721 202.95 496.443 194.697L510.694 31.8085C511.416 23.5557 505.311 16.2802 497.058 15.5582Z" fill="white"/>
</svg>
